%FSLAX35Y35*%
%MOIN*%
%IN*%
%ADD10C,0.00591*%
%ADD11C,0.00061*%
%ADD12C,0.00394*%
%ADD13C,0.00768*%
%ADD14C,0.02598*%
%ADD15C,0.02835*%
%ADD16C,0.03937*%
%ADD17C,0.08661*%
%AMR_18*21,1,0.03150,0.19685,0,0,0.000*%
%ADD18R_18*%
%AMR_19*21,1,0.04646,0.03346,0,0,0.000*%
%ADD19R_19*%
%AMR_20*21,1,0.08661,0.03150,0,0,0.000*%
%ADD20R_20*%
%AMR_21*21,1,0.09843,0.19685,0,0,0.000*%
%ADD21R_21*%
%AMR_22*21,1,0.13780,0.19685,0,0,0.000*%
%ADD22R_22*%
%AMR_23*21,1,0.14567,0.19685,0,0,0.000*%
%ADD23R_23*%
%AMR_24*21,1,0.19685,0.19685,0,0,0.000*%
%ADD24R_24*%
G54D14*
X82462Y1621D03*
X101281Y1621D03*
X120100Y1621D03*
X138919Y1621D03*
X157738Y1621D03*
X176556Y1621D03*
X214194Y1621D03*
X195375Y1621D03*
X233013Y1621D03*
X251832Y1621D03*
X270651Y1621D03*
X289470Y1621D03*
X308289Y1621D03*
X327108Y1621D03*
X345927Y1621D03*
X364745Y1621D03*
X383564Y1621D03*
X402383Y1621D03*
X421202Y1621D03*
X458840Y1621D03*
X440021Y1621D03*
X477659Y1621D03*
X496478Y1621D03*
X515297Y1621D03*
X534116Y1621D03*
X552934Y1621D03*
X571753Y1621D03*
X590572Y1621D03*
X609391Y1621D03*
X628210Y1621D03*
X665848Y1621D03*
X647029Y1621D03*
X684667Y1621D03*
X703486Y1621D03*
X722305Y1621D03*
X741123Y1621D03*
X759942Y1621D03*
X778761Y1621D03*
X797580Y1621D03*
X26005Y1621D03*
X44824Y1621D03*
X63643Y1621D03*
X816478Y1621D03*
X7186Y1621D03*
G54D16*
X741123Y15125D03*
X722305Y15125D03*
X703486Y15125D03*
X684667Y15125D03*
X665848Y15125D03*
X647029Y15125D03*
X628210Y15125D03*
X609391Y15125D03*
X590572Y15125D03*
X571753Y15125D03*
X552934Y15125D03*
X534116Y15125D03*
X515297Y15125D03*
X496478Y15125D03*
X477659Y15125D03*
X458840Y15125D03*
X440021Y15125D03*
X421202Y15125D03*
X402383Y15125D03*
X383564Y15125D03*
X364745Y15125D03*
X345927Y15125D03*
X327108Y15125D03*
X308289Y15125D03*
X289470Y15125D03*
X270651Y15125D03*
X251832Y15125D03*
X233013Y15125D03*
X214194Y15125D03*
X195375Y15125D03*
X176556Y15125D03*
X157738Y15125D03*
X138919Y15125D03*
X120100Y15125D03*
X101281Y15125D03*
X82462Y15125D03*
X797580Y15125D03*
X778761Y15125D03*
X759942Y15125D03*
X63643Y15125D03*
X44824Y15125D03*
X26005Y15125D03*
G54D17*
X458840Y15833D03*
X477659Y15833D03*
X496478Y15833D03*
X515297Y15833D03*
X534116Y15833D03*
X552934Y15833D03*
X571753Y15833D03*
X590572Y15833D03*
X609391Y15833D03*
X628210Y15833D03*
X647029Y15833D03*
X665848Y15833D03*
X684667Y15833D03*
X703486Y15833D03*
X722305Y15833D03*
X741123Y15833D03*
X440021Y15833D03*
X345927Y15833D03*
X327108Y15833D03*
X308289Y15833D03*
X289470Y15833D03*
X270651Y15833D03*
X251832Y15833D03*
X233013Y15833D03*
X214194Y15833D03*
X195375Y15833D03*
X176556Y15833D03*
X138919Y15833D03*
X120100Y15833D03*
X101281Y15833D03*
X82462Y15833D03*
X157738Y15833D03*
X364706Y15676D03*
X383525Y15597D03*
X402423Y15597D03*
X421281Y15715D03*
X759942Y15833D03*
X778722Y15676D03*
X797580Y15833D03*
X63643Y15833D03*
X26005Y15794D03*
X44903Y15715D03*
X816438Y15597D03*
X7186Y15873D03*
G36*
X80493Y15006D02*
X80493Y15006D01*
X81202Y1542D01*
X81281Y3786D01*
X80493Y15006D01*
D02*G37*
G36*
X81202Y1542D02*
X81202Y1542D01*
X83722Y1542D01*
X84431Y15164D01*
X81202Y1542D01*
D02*G37*
G36*
X81202Y1542D02*
X81202Y1542D01*
X84431Y15164D01*
X80493Y15006D01*
X81202Y1542D01*
D02*G37*
G36*
X99312Y15006D02*
X99312Y15006D01*
X100021Y1542D01*
X100100Y3786D01*
X99312Y15006D01*
D02*G37*
G36*
X100021Y1542D02*
X100021Y1542D01*
X102541Y1542D01*
X103249Y15164D01*
X100021Y1542D01*
D02*G37*
G36*
X100021Y1542D02*
X100021Y1542D01*
X103249Y15164D01*
X99312Y15006D01*
X100021Y1542D01*
D02*G37*
G36*
X118131Y15006D02*
X118131Y15006D01*
X118840Y1542D01*
X118919Y3786D01*
X118131Y15006D01*
D02*G37*
G36*
X118840Y1542D02*
X118840Y1542D01*
X121360Y1542D01*
X122068Y15164D01*
X118840Y1542D01*
D02*G37*
G36*
X118840Y1542D02*
X118840Y1542D01*
X122068Y15164D01*
X118131Y15006D01*
X118840Y1542D01*
D02*G37*
G36*
X136950Y15006D02*
X136950Y15006D01*
X137659Y1542D01*
X137738Y3786D01*
X136950Y15006D01*
D02*G37*
G36*
X137659Y1542D02*
X137659Y1542D01*
X140179Y1542D01*
X140887Y15164D01*
X137659Y1542D01*
D02*G37*
G36*
X137659Y1542D02*
X137659Y1542D01*
X140887Y15164D01*
X136950Y15006D01*
X137659Y1542D01*
D02*G37*
G36*
X155769Y15006D02*
X155769Y15006D01*
X156478Y1542D01*
X156556Y3786D01*
X155769Y15006D01*
D02*G37*
G36*
X156478Y1542D02*
X156478Y1542D01*
X158997Y1542D01*
X159706Y15164D01*
X156478Y1542D01*
D02*G37*
G36*
X156478Y1542D02*
X156478Y1542D01*
X159706Y15164D01*
X155769Y15006D01*
X156478Y1542D01*
D02*G37*
G36*
X174588Y15006D02*
X174588Y15006D01*
X175297Y1542D01*
X175375Y3786D01*
X174588Y15006D01*
D02*G37*
G36*
X175297Y1542D02*
X175297Y1542D01*
X177816Y1542D01*
X178525Y15164D01*
X175297Y1542D01*
D02*G37*
G36*
X175297Y1542D02*
X175297Y1542D01*
X178525Y15164D01*
X174588Y15006D01*
X175297Y1542D01*
D02*G37*
G36*
X212226Y15006D02*
X212226Y15006D01*
X212934Y1542D01*
X213013Y3786D01*
X212226Y15006D01*
D02*G37*
G36*
X212934Y1542D02*
X212934Y1542D01*
X215454Y1542D01*
X216163Y15164D01*
X212934Y1542D01*
D02*G37*
G36*
X212934Y1542D02*
X212934Y1542D01*
X216163Y15164D01*
X212226Y15006D01*
X212934Y1542D01*
D02*G37*
G36*
X193407Y15006D02*
X193407Y15006D01*
X194116Y1542D01*
X194194Y3786D01*
X193407Y15006D01*
D02*G37*
G36*
X194116Y1542D02*
X194116Y1542D01*
X196635Y1542D01*
X197344Y15164D01*
X194116Y1542D01*
D02*G37*
G36*
X194116Y1542D02*
X194116Y1542D01*
X197344Y15164D01*
X193407Y15006D01*
X194116Y1542D01*
D02*G37*
G36*
X231045Y15006D02*
X231045Y15006D01*
X231753Y1542D01*
X231832Y3786D01*
X231045Y15006D01*
D02*G37*
G36*
X231753Y1542D02*
X231753Y1542D01*
X234273Y1542D01*
X234982Y15164D01*
X231753Y1542D01*
D02*G37*
G36*
X231753Y1542D02*
X231753Y1542D01*
X234982Y15164D01*
X231045Y15006D01*
X231753Y1542D01*
D02*G37*
G36*
X249864Y15006D02*
X249864Y15006D01*
X250572Y1542D01*
X250651Y3786D01*
X249864Y15006D01*
D02*G37*
G36*
X250572Y1542D02*
X250572Y1542D01*
X253092Y1542D01*
X253801Y15164D01*
X250572Y1542D01*
D02*G37*
G36*
X250572Y1542D02*
X250572Y1542D01*
X253801Y15164D01*
X249864Y15006D01*
X250572Y1542D01*
D02*G37*
G36*
X268682Y15006D02*
X268682Y15006D01*
X269391Y1542D01*
X269470Y3786D01*
X268682Y15006D01*
D02*G37*
G36*
X269391Y1542D02*
X269391Y1542D01*
X271911Y1542D01*
X272619Y15164D01*
X269391Y1542D01*
D02*G37*
G36*
X269391Y1542D02*
X269391Y1542D01*
X272619Y15164D01*
X268682Y15006D01*
X269391Y1542D01*
D02*G37*
G36*
X287501Y15006D02*
X287501Y15006D01*
X288210Y1542D01*
X288289Y3786D01*
X287501Y15006D01*
D02*G37*
G36*
X288210Y1542D02*
X288210Y1542D01*
X290730Y1542D01*
X291438Y15164D01*
X288210Y1542D01*
D02*G37*
G36*
X288210Y1542D02*
X288210Y1542D01*
X291438Y15164D01*
X287501Y15006D01*
X288210Y1542D01*
D02*G37*
G36*
X306320Y15006D02*
X306320Y15006D01*
X307029Y1542D01*
X307108Y3786D01*
X306320Y15006D01*
D02*G37*
G36*
X307029Y1542D02*
X307029Y1542D01*
X309549Y1542D01*
X310257Y15164D01*
X307029Y1542D01*
D02*G37*
G36*
X307029Y1542D02*
X307029Y1542D01*
X310257Y15164D01*
X306320Y15006D01*
X307029Y1542D01*
D02*G37*
G36*
X325139Y15006D02*
X325139Y15006D01*
X325848Y1542D01*
X325927Y3786D01*
X325139Y15006D01*
D02*G37*
G36*
X325848Y1542D02*
X325848Y1542D01*
X328368Y1542D01*
X329076Y15164D01*
X325848Y1542D01*
D02*G37*
G36*
X325848Y1542D02*
X325848Y1542D01*
X329076Y15164D01*
X325139Y15006D01*
X325848Y1542D01*
D02*G37*
G36*
X343958Y15006D02*
X343958Y15006D01*
X344667Y1542D01*
X344745Y3786D01*
X343958Y15006D01*
D02*G37*
G36*
X344667Y1542D02*
X344667Y1542D01*
X347186Y1542D01*
X347895Y15164D01*
X344667Y1542D01*
D02*G37*
G36*
X344667Y1542D02*
X344667Y1542D01*
X347895Y15164D01*
X343958Y15006D01*
X344667Y1542D01*
D02*G37*
G36*
X362777Y15006D02*
X362777Y15006D01*
X363486Y1542D01*
X363564Y3786D01*
X362777Y15006D01*
D02*G37*
G36*
X363486Y1542D02*
X363486Y1542D01*
X366005Y1542D01*
X366714Y15164D01*
X363486Y1542D01*
D02*G37*
G36*
X363486Y1542D02*
X363486Y1542D01*
X366714Y15164D01*
X362777Y15006D01*
X363486Y1542D01*
D02*G37*
G36*
X381596Y15006D02*
X381596Y15006D01*
X382305Y1542D01*
X382383Y3786D01*
X381596Y15006D01*
D02*G37*
G36*
X382305Y1542D02*
X382305Y1542D01*
X384824Y1542D01*
X385533Y15164D01*
X382305Y1542D01*
D02*G37*
G36*
X382305Y1542D02*
X382305Y1542D01*
X385533Y15164D01*
X381596Y15006D01*
X382305Y1542D01*
D02*G37*
G36*
X400415Y15006D02*
X400415Y15006D01*
X401123Y1542D01*
X401202Y3786D01*
X400415Y15006D01*
D02*G37*
G36*
X401123Y1542D02*
X401123Y1542D01*
X403643Y1542D01*
X404352Y15164D01*
X401123Y1542D01*
D02*G37*
G36*
X401123Y1542D02*
X401123Y1542D01*
X404352Y15164D01*
X400415Y15006D01*
X401123Y1542D01*
D02*G37*
G36*
X419234Y15006D02*
X419234Y15006D01*
X419942Y1542D01*
X420021Y3786D01*
X419234Y15006D01*
D02*G37*
G36*
X419942Y1542D02*
X419942Y1542D01*
X422462Y1542D01*
X423171Y15164D01*
X419942Y1542D01*
D02*G37*
G36*
X419942Y1542D02*
X419942Y1542D01*
X423171Y15164D01*
X419234Y15006D01*
X419942Y1542D01*
D02*G37*
G36*
X456871Y15006D02*
X456871Y15006D01*
X457580Y1542D01*
X457659Y3786D01*
X456871Y15006D01*
D02*G37*
G36*
X457580Y1542D02*
X457580Y1542D01*
X460100Y1542D01*
X460808Y15164D01*
X457580Y1542D01*
D02*G37*
G36*
X457580Y1542D02*
X457580Y1542D01*
X460808Y15164D01*
X456871Y15006D01*
X457580Y1542D01*
D02*G37*
G36*
X438053Y15006D02*
X438053Y15006D01*
X438761Y1542D01*
X438840Y3786D01*
X438053Y15006D01*
D02*G37*
G36*
X438761Y1542D02*
X438761Y1542D01*
X441281Y1542D01*
X441990Y15164D01*
X438761Y1542D01*
D02*G37*
G36*
X438761Y1542D02*
X438761Y1542D01*
X441990Y15164D01*
X438053Y15006D01*
X438761Y1542D01*
D02*G37*
G36*
X475690Y15006D02*
X475690Y15006D01*
X476399Y1542D01*
X476478Y3786D01*
X475690Y15006D01*
D02*G37*
G36*
X476399Y1542D02*
X476399Y1542D01*
X478919Y1542D01*
X479627Y15164D01*
X476399Y1542D01*
D02*G37*
G36*
X476399Y1542D02*
X476399Y1542D01*
X479627Y15164D01*
X475690Y15006D01*
X476399Y1542D01*
D02*G37*
G36*
X494509Y15006D02*
X494509Y15006D01*
X495218Y1542D01*
X495297Y3786D01*
X494509Y15006D01*
D02*G37*
G36*
X495218Y1542D02*
X495218Y1542D01*
X497738Y1542D01*
X498446Y15164D01*
X495218Y1542D01*
D02*G37*
G36*
X495218Y1542D02*
X495218Y1542D01*
X498446Y15164D01*
X494509Y15006D01*
X495218Y1542D01*
D02*G37*
G36*
X513328Y15006D02*
X513328Y15006D01*
X514037Y1542D01*
X514116Y3786D01*
X513328Y15006D01*
D02*G37*
G36*
X514037Y1542D02*
X514037Y1542D01*
X516556Y1542D01*
X517265Y15164D01*
X514037Y1542D01*
D02*G37*
G36*
X514037Y1542D02*
X514037Y1542D01*
X517265Y15164D01*
X513328Y15006D01*
X514037Y1542D01*
D02*G37*
G36*
X532147Y15006D02*
X532147Y15006D01*
X532856Y1542D01*
X532934Y3786D01*
X532147Y15006D01*
D02*G37*
G36*
X532856Y1542D02*
X532856Y1542D01*
X535375Y1542D01*
X536084Y15164D01*
X532856Y1542D01*
D02*G37*
G36*
X532856Y1542D02*
X532856Y1542D01*
X536084Y15164D01*
X532147Y15006D01*
X532856Y1542D01*
D02*G37*
G36*
X550966Y15006D02*
X550966Y15006D01*
X551675Y1542D01*
X551753Y3786D01*
X550966Y15006D01*
D02*G37*
G36*
X551675Y1542D02*
X551675Y1542D01*
X554194Y1542D01*
X554903Y15164D01*
X551675Y1542D01*
D02*G37*
G36*
X551675Y1542D02*
X551675Y1542D01*
X554903Y15164D01*
X550966Y15006D01*
X551675Y1542D01*
D02*G37*
G36*
X569785Y15006D02*
X569785Y15006D01*
X570493Y1542D01*
X570572Y3786D01*
X569785Y15006D01*
D02*G37*
G36*
X570493Y1542D02*
X570493Y1542D01*
X573013Y1542D01*
X573722Y15164D01*
X570493Y1542D01*
D02*G37*
G36*
X570493Y1542D02*
X570493Y1542D01*
X573722Y15164D01*
X569785Y15006D01*
X570493Y1542D01*
D02*G37*
G36*
X588604Y15006D02*
X588604Y15006D01*
X589312Y1542D01*
X589391Y3786D01*
X588604Y15006D01*
D02*G37*
G36*
X589312Y1542D02*
X589312Y1542D01*
X591832Y1542D01*
X592541Y15164D01*
X589312Y1542D01*
D02*G37*
G36*
X589312Y1542D02*
X589312Y1542D01*
X592541Y15164D01*
X588604Y15006D01*
X589312Y1542D01*
D02*G37*
G36*
X607423Y15006D02*
X607423Y15006D01*
X608131Y1542D01*
X608210Y3786D01*
X607423Y15006D01*
D02*G37*
G36*
X608131Y1542D02*
X608131Y1542D01*
X610651Y1542D01*
X611360Y15164D01*
X608131Y1542D01*
D02*G37*
G36*
X608131Y1542D02*
X608131Y1542D01*
X611360Y15164D01*
X607423Y15006D01*
X608131Y1542D01*
D02*G37*
G36*
X626242Y15006D02*
X626242Y15006D01*
X626950Y1542D01*
X627029Y3786D01*
X626242Y15006D01*
D02*G37*
G36*
X626950Y1542D02*
X626950Y1542D01*
X629470Y1542D01*
X630179Y15164D01*
X626950Y1542D01*
D02*G37*
G36*
X626950Y1542D02*
X626950Y1542D01*
X630179Y15164D01*
X626242Y15006D01*
X626950Y1542D01*
D02*G37*
G36*
X663879Y15006D02*
X663879Y15006D01*
X664588Y1542D01*
X664667Y3786D01*
X663879Y15006D01*
D02*G37*
G36*
X664588Y1542D02*
X664588Y1542D01*
X667108Y1542D01*
X667816Y15164D01*
X664588Y1542D01*
D02*G37*
G36*
X664588Y1542D02*
X664588Y1542D01*
X667816Y15164D01*
X663879Y15006D01*
X664588Y1542D01*
D02*G37*
G36*
X645060Y15006D02*
X645060Y15006D01*
X645769Y1542D01*
X645848Y3786D01*
X645060Y15006D01*
D02*G37*
G36*
X645769Y1542D02*
X645769Y1542D01*
X648289Y1542D01*
X648997Y15164D01*
X645769Y1542D01*
D02*G37*
G36*
X645769Y1542D02*
X645769Y1542D01*
X648997Y15164D01*
X645060Y15006D01*
X645769Y1542D01*
D02*G37*
G36*
X682698Y15006D02*
X682698Y15006D01*
X683407Y1542D01*
X683486Y3786D01*
X682698Y15006D01*
D02*G37*
G36*
X683407Y1542D02*
X683407Y1542D01*
X685927Y1542D01*
X686635Y15164D01*
X683407Y1542D01*
D02*G37*
G36*
X683407Y1542D02*
X683407Y1542D01*
X686635Y15164D01*
X682698Y15006D01*
X683407Y1542D01*
D02*G37*
G36*
X701517Y15006D02*
X701517Y15006D01*
X702226Y1542D01*
X702305Y3786D01*
X701517Y15006D01*
D02*G37*
G36*
X702226Y1542D02*
X702226Y1542D01*
X704745Y1542D01*
X705454Y15164D01*
X702226Y1542D01*
D02*G37*
G36*
X702226Y1542D02*
X702226Y1542D01*
X705454Y15164D01*
X701517Y15006D01*
X702226Y1542D01*
D02*G37*
G36*
X720336Y15006D02*
X720336Y15006D01*
X721045Y1542D01*
X721123Y3786D01*
X720336Y15006D01*
D02*G37*
G36*
X721045Y1542D02*
X721045Y1542D01*
X723564Y1542D01*
X724273Y15164D01*
X721045Y1542D01*
D02*G37*
G36*
X721045Y1542D02*
X721045Y1542D01*
X724273Y15164D01*
X720336Y15006D01*
X721045Y1542D01*
D02*G37*
G36*
X739155Y15006D02*
X739155Y15006D01*
X739864Y1542D01*
X739942Y3786D01*
X739155Y15006D01*
D02*G37*
G36*
X739864Y1542D02*
X739864Y1542D01*
X742383Y1542D01*
X743092Y15164D01*
X739864Y1542D01*
D02*G37*
G36*
X739864Y1542D02*
X739864Y1542D01*
X743092Y15164D01*
X739155Y15006D01*
X739864Y1542D01*
D02*G37*
G36*
X25060Y243D02*
X25060Y243D01*
X25690Y6D01*
X26399Y6D01*
X25060Y243D01*
D02*G37*
G36*
X26399Y6D02*
X26399Y6D01*
X27147Y439D01*
X27619Y1266D01*
X26399Y6D01*
D02*G37*
G36*
X24549Y991D02*
X24549Y991D01*
X25060Y243D01*
X26399Y6D01*
X24549Y991D01*
D02*G37*
G36*
X24549Y991D02*
X24549Y991D01*
X26399Y6D01*
X27619Y1266D01*
X24549Y991D01*
D02*G37*
G36*
X23840Y14731D02*
X23840Y14731D01*
X24549Y991D01*
X27619Y1266D01*
X23840Y14731D01*
D02*G37*
G36*
X23840Y14731D02*
X23840Y14731D01*
X27619Y1266D01*
X28368Y14731D01*
X23840Y14731D01*
D02*G37*
G36*
X43879Y243D02*
X43879Y243D01*
X44509Y6D01*
X45218Y6D01*
X43879Y243D01*
D02*G37*
G36*
X45218Y6D02*
X45218Y6D01*
X45966Y439D01*
X46438Y1266D01*
X45218Y6D01*
D02*G37*
G36*
X43368Y991D02*
X43368Y991D01*
X43879Y243D01*
X45218Y6D01*
X43368Y991D01*
D02*G37*
G36*
X43368Y991D02*
X43368Y991D01*
X45218Y6D01*
X46438Y1266D01*
X43368Y991D01*
D02*G37*
G36*
X42738Y14928D02*
X42738Y14928D01*
X43368Y991D01*
X46438Y1266D01*
X42738Y14928D01*
D02*G37*
G36*
X42738Y14928D02*
X42738Y14928D01*
X46438Y1266D01*
X47265Y14928D01*
X42738Y14928D01*
D02*G37*
G36*
X62698Y243D02*
X62698Y243D01*
X63328Y6D01*
X64037Y6D01*
X62698Y243D01*
D02*G37*
G36*
X64037Y6D02*
X64037Y6D01*
X64785Y439D01*
X65257Y1266D01*
X64037Y6D01*
D02*G37*
G36*
X62186Y991D02*
X62186Y991D01*
X62698Y243D01*
X64037Y6D01*
X62186Y991D01*
D02*G37*
G36*
X62186Y991D02*
X62186Y991D01*
X64037Y6D01*
X65257Y1266D01*
X62186Y991D01*
D02*G37*
G36*
X61438Y15125D02*
X61438Y15125D01*
X62186Y991D01*
X65257Y1266D01*
X61438Y15125D01*
D02*G37*
G36*
X61438Y15125D02*
X61438Y15125D01*
X65257Y1266D01*
X65966Y15125D01*
X61438Y15125D01*
D02*G37*
G36*
X81517Y243D02*
X81517Y243D01*
X82147Y6D01*
X82856Y6D01*
X81517Y243D01*
D02*G37*
G36*
X82856Y6D02*
X82856Y6D01*
X83604Y439D01*
X84076Y1266D01*
X82856Y6D01*
D02*G37*
G36*
X81005Y991D02*
X81005Y991D01*
X81517Y243D01*
X82856Y6D01*
X81005Y991D01*
D02*G37*
G36*
X81005Y991D02*
X81005Y991D01*
X82856Y6D01*
X84076Y1266D01*
X81005Y991D01*
D02*G37*
G36*
X80139Y15321D02*
X80139Y15321D01*
X81005Y991D01*
X84076Y1266D01*
X80139Y15321D01*
D02*G37*
G36*
X80139Y15321D02*
X80139Y15321D01*
X84076Y1266D01*
X84864Y15321D01*
X80139Y15321D01*
D02*G37*
G36*
X100336Y243D02*
X100336Y243D01*
X100966Y6D01*
X101675Y6D01*
X100336Y243D01*
D02*G37*
G36*
X101675Y6D02*
X101675Y6D01*
X102423Y439D01*
X102895Y1266D01*
X101675Y6D01*
D02*G37*
G36*
X99824Y991D02*
X99824Y991D01*
X100336Y243D01*
X101675Y6D01*
X99824Y991D01*
D02*G37*
G36*
X99824Y991D02*
X99824Y991D01*
X101675Y6D01*
X102895Y1266D01*
X99824Y991D01*
D02*G37*
G36*
X99037Y15125D02*
X99037Y15125D01*
X99824Y991D01*
X102895Y1266D01*
X99037Y15125D01*
D02*G37*
G36*
X99037Y15125D02*
X99037Y15125D01*
X102895Y1266D01*
X103564Y15125D01*
X99037Y15125D01*
D02*G37*
G36*
X119155Y243D02*
X119155Y243D01*
X119785Y6D01*
X120493Y6D01*
X119155Y243D01*
D02*G37*
G36*
X120493Y6D02*
X120493Y6D01*
X121242Y439D01*
X121714Y1266D01*
X120493Y6D01*
D02*G37*
G36*
X118643Y991D02*
X118643Y991D01*
X119155Y243D01*
X120493Y6D01*
X118643Y991D01*
D02*G37*
G36*
X118643Y991D02*
X118643Y991D01*
X120493Y6D01*
X121714Y1266D01*
X118643Y991D01*
D02*G37*
G36*
X117974Y12920D02*
X117974Y12920D01*
X118643Y991D01*
X121714Y1266D01*
X117974Y12920D01*
D02*G37*
G36*
X117974Y12920D02*
X117974Y12920D01*
X121714Y1266D01*
X122265Y12880D01*
X117974Y12920D01*
D02*G37*
G36*
X137974Y243D02*
X137974Y243D01*
X138604Y6D01*
X139312Y6D01*
X137974Y243D01*
D02*G37*
G36*
X139312Y6D02*
X139312Y6D01*
X140060Y439D01*
X140533Y1266D01*
X139312Y6D01*
D02*G37*
G36*
X137462Y991D02*
X137462Y991D01*
X137974Y243D01*
X139312Y6D01*
X137462Y991D01*
D02*G37*
G36*
X137462Y991D02*
X137462Y991D01*
X139312Y6D01*
X140533Y1266D01*
X137462Y991D01*
D02*G37*
G36*
X136793Y12920D02*
X136793Y12920D01*
X137462Y991D01*
X140533Y1266D01*
X136793Y12920D01*
D02*G37*
G36*
X136793Y12920D02*
X136793Y12920D01*
X140533Y1266D01*
X141084Y12880D01*
X136793Y12920D01*
D02*G37*
G36*
X156793Y243D02*
X156793Y243D01*
X157423Y6D01*
X158131Y6D01*
X156793Y243D01*
D02*G37*
G36*
X158131Y6D02*
X158131Y6D01*
X158879Y439D01*
X159352Y1266D01*
X158131Y6D01*
D02*G37*
G36*
X156281Y991D02*
X156281Y991D01*
X156793Y243D01*
X158131Y6D01*
X156281Y991D01*
D02*G37*
G36*
X156281Y991D02*
X156281Y991D01*
X158131Y6D01*
X159352Y1266D01*
X156281Y991D01*
D02*G37*
G36*
X155612Y12920D02*
X155612Y12920D01*
X156281Y991D01*
X159352Y1266D01*
X155612Y12920D01*
D02*G37*
G36*
X155612Y12920D02*
X155612Y12920D01*
X159352Y1266D01*
X159903Y12880D01*
X155612Y12920D01*
D02*G37*
G36*
X175612Y243D02*
X175612Y243D01*
X176242Y6D01*
X176950Y6D01*
X175612Y243D01*
D02*G37*
G36*
X176950Y6D02*
X176950Y6D01*
X177698Y439D01*
X178171Y1266D01*
X176950Y6D01*
D02*G37*
G36*
X175100Y991D02*
X175100Y991D01*
X175612Y243D01*
X176950Y6D01*
X175100Y991D01*
D02*G37*
G36*
X175100Y991D02*
X175100Y991D01*
X176950Y6D01*
X178171Y1266D01*
X175100Y991D01*
D02*G37*
G36*
X174431Y12920D02*
X174431Y12920D01*
X175100Y991D01*
X178171Y1266D01*
X174431Y12920D01*
D02*G37*
G36*
X174431Y12920D02*
X174431Y12920D01*
X178171Y1266D01*
X178722Y12880D01*
X174431Y12920D01*
D02*G37*
G36*
X194431Y243D02*
X194431Y243D01*
X195060Y6D01*
X195769Y6D01*
X194431Y243D01*
D02*G37*
G36*
X195769Y6D02*
X195769Y6D01*
X196517Y439D01*
X196990Y1266D01*
X195769Y6D01*
D02*G37*
G36*
X193919Y991D02*
X193919Y991D01*
X194431Y243D01*
X195769Y6D01*
X193919Y991D01*
D02*G37*
G36*
X193919Y991D02*
X193919Y991D01*
X195769Y6D01*
X196990Y1266D01*
X193919Y991D01*
D02*G37*
G36*
X193249Y12920D02*
X193249Y12920D01*
X193919Y991D01*
X196990Y1266D01*
X193249Y12920D01*
D02*G37*
G36*
X193249Y12920D02*
X193249Y12920D01*
X196990Y1266D01*
X197541Y12880D01*
X193249Y12920D01*
D02*G37*
G36*
X232068Y243D02*
X232068Y243D01*
X232698Y6D01*
X233407Y6D01*
X232068Y243D01*
D02*G37*
G36*
X233407Y6D02*
X233407Y6D01*
X234155Y439D01*
X234627Y1266D01*
X233407Y6D01*
D02*G37*
G36*
X231556Y991D02*
X231556Y991D01*
X232068Y243D01*
X233407Y6D01*
X231556Y991D01*
D02*G37*
G36*
X231556Y991D02*
X231556Y991D01*
X233407Y6D01*
X234627Y1266D01*
X231556Y991D01*
D02*G37*
G36*
X230887Y12920D02*
X230887Y12920D01*
X231556Y991D01*
X234627Y1266D01*
X230887Y12920D01*
D02*G37*
G36*
X230887Y12920D02*
X230887Y12920D01*
X234627Y1266D01*
X235179Y12880D01*
X230887Y12920D01*
D02*G37*
G36*
X213249Y243D02*
X213249Y243D01*
X213879Y6D01*
X214588Y6D01*
X213249Y243D01*
D02*G37*
G36*
X214588Y6D02*
X214588Y6D01*
X215336Y439D01*
X215808Y1266D01*
X214588Y6D01*
D02*G37*
G36*
X212738Y991D02*
X212738Y991D01*
X213249Y243D01*
X214588Y6D01*
X212738Y991D01*
D02*G37*
G36*
X212738Y991D02*
X212738Y991D01*
X214588Y6D01*
X215808Y1266D01*
X212738Y991D01*
D02*G37*
G36*
X212068Y12920D02*
X212068Y12920D01*
X212738Y991D01*
X215808Y1266D01*
X212068Y12920D01*
D02*G37*
G36*
X212068Y12920D02*
X212068Y12920D01*
X215808Y1266D01*
X216360Y12880D01*
X212068Y12920D01*
D02*G37*
G36*
X250887Y243D02*
X250887Y243D01*
X251517Y6D01*
X252226Y6D01*
X250887Y243D01*
D02*G37*
G36*
X252226Y6D02*
X252226Y6D01*
X252974Y439D01*
X253446Y1266D01*
X252226Y6D01*
D02*G37*
G36*
X250375Y991D02*
X250375Y991D01*
X250887Y243D01*
X252226Y6D01*
X250375Y991D01*
D02*G37*
G36*
X250375Y991D02*
X250375Y991D01*
X252226Y6D01*
X253446Y1266D01*
X250375Y991D01*
D02*G37*
G36*
X249706Y12920D02*
X249706Y12920D01*
X250375Y991D01*
X253446Y1266D01*
X249706Y12920D01*
D02*G37*
G36*
X249706Y12920D02*
X249706Y12920D01*
X253446Y1266D01*
X253997Y12880D01*
X249706Y12920D01*
D02*G37*
G36*
X269706Y243D02*
X269706Y243D01*
X270336Y6D01*
X271045Y6D01*
X269706Y243D01*
D02*G37*
G36*
X271045Y6D02*
X271045Y6D01*
X271793Y439D01*
X272265Y1266D01*
X271045Y6D01*
D02*G37*
G36*
X269194Y991D02*
X269194Y991D01*
X269706Y243D01*
X271045Y6D01*
X269194Y991D01*
D02*G37*
G36*
X269194Y991D02*
X269194Y991D01*
X271045Y6D01*
X272265Y1266D01*
X269194Y991D01*
D02*G37*
G36*
X268525Y12920D02*
X268525Y12920D01*
X269194Y991D01*
X272265Y1266D01*
X268525Y12920D01*
D02*G37*
G36*
X268525Y12920D02*
X268525Y12920D01*
X272265Y1266D01*
X272816Y12880D01*
X268525Y12920D01*
D02*G37*
G36*
X288525Y243D02*
X288525Y243D01*
X289155Y6D01*
X289864Y6D01*
X288525Y243D01*
D02*G37*
G36*
X289864Y6D02*
X289864Y6D01*
X290612Y439D01*
X291084Y1266D01*
X289864Y6D01*
D02*G37*
G36*
X288013Y991D02*
X288013Y991D01*
X288525Y243D01*
X289864Y6D01*
X288013Y991D01*
D02*G37*
G36*
X288013Y991D02*
X288013Y991D01*
X289864Y6D01*
X291084Y1266D01*
X288013Y991D01*
D02*G37*
G36*
X287344Y12920D02*
X287344Y12920D01*
X288013Y991D01*
X291084Y1266D01*
X287344Y12920D01*
D02*G37*
G36*
X287344Y12920D02*
X287344Y12920D01*
X291084Y1266D01*
X291635Y12880D01*
X287344Y12920D01*
D02*G37*
G36*
X307344Y243D02*
X307344Y243D01*
X307974Y6D01*
X308682Y6D01*
X307344Y243D01*
D02*G37*
G36*
X308682Y6D02*
X308682Y6D01*
X309431Y439D01*
X309903Y1266D01*
X308682Y6D01*
D02*G37*
G36*
X306832Y991D02*
X306832Y991D01*
X307344Y243D01*
X308682Y6D01*
X306832Y991D01*
D02*G37*
G36*
X306832Y991D02*
X306832Y991D01*
X308682Y6D01*
X309903Y1266D01*
X306832Y991D01*
D02*G37*
G36*
X306163Y12920D02*
X306163Y12920D01*
X306832Y991D01*
X309903Y1266D01*
X306163Y12920D01*
D02*G37*
G36*
X306163Y12920D02*
X306163Y12920D01*
X309903Y1266D01*
X310454Y12880D01*
X306163Y12920D01*
D02*G37*
G36*
X326163Y243D02*
X326163Y243D01*
X326793Y6D01*
X327501Y6D01*
X326163Y243D01*
D02*G37*
G36*
X327501Y6D02*
X327501Y6D01*
X328249Y439D01*
X328722Y1266D01*
X327501Y6D01*
D02*G37*
G36*
X325651Y991D02*
X325651Y991D01*
X326163Y243D01*
X327501Y6D01*
X325651Y991D01*
D02*G37*
G36*
X325651Y991D02*
X325651Y991D01*
X327501Y6D01*
X328722Y1266D01*
X325651Y991D01*
D02*G37*
G36*
X324982Y12920D02*
X324982Y12920D01*
X325651Y991D01*
X328722Y1266D01*
X324982Y12920D01*
D02*G37*
G36*
X324982Y12920D02*
X324982Y12920D01*
X328722Y1266D01*
X329273Y12880D01*
X324982Y12920D01*
D02*G37*
G36*
X344982Y243D02*
X344982Y243D01*
X345612Y6D01*
X346320Y6D01*
X344982Y243D01*
D02*G37*
G36*
X346320Y6D02*
X346320Y6D01*
X347068Y439D01*
X347541Y1266D01*
X346320Y6D01*
D02*G37*
G36*
X344470Y991D02*
X344470Y991D01*
X344982Y243D01*
X346320Y6D01*
X344470Y991D01*
D02*G37*
G36*
X344470Y991D02*
X344470Y991D01*
X346320Y6D01*
X347541Y1266D01*
X344470Y991D01*
D02*G37*
G36*
X343801Y12920D02*
X343801Y12920D01*
X344470Y991D01*
X347541Y1266D01*
X343801Y12920D01*
D02*G37*
G36*
X343801Y12920D02*
X343801Y12920D01*
X347541Y1266D01*
X348092Y12880D01*
X343801Y12920D01*
D02*G37*
G36*
X363801Y243D02*
X363801Y243D01*
X364431Y6D01*
X365139Y6D01*
X363801Y243D01*
D02*G37*
G36*
X365139Y6D02*
X365139Y6D01*
X365887Y439D01*
X366360Y1266D01*
X365139Y6D01*
D02*G37*
G36*
X363289Y991D02*
X363289Y991D01*
X363801Y243D01*
X365139Y6D01*
X363289Y991D01*
D02*G37*
G36*
X363289Y991D02*
X363289Y991D01*
X365139Y6D01*
X366360Y1266D01*
X363289Y991D01*
D02*G37*
G36*
X362619Y12920D02*
X362619Y12920D01*
X363289Y991D01*
X366360Y1266D01*
X362619Y12920D01*
D02*G37*
G36*
X362619Y12920D02*
X362619Y12920D01*
X366360Y1266D01*
X366911Y12880D01*
X362619Y12920D01*
D02*G37*
G36*
X382619Y243D02*
X382619Y243D01*
X383249Y6D01*
X383958Y6D01*
X382619Y243D01*
D02*G37*
G36*
X383958Y6D02*
X383958Y6D01*
X384706Y439D01*
X385179Y1266D01*
X383958Y6D01*
D02*G37*
G36*
X382108Y991D02*
X382108Y991D01*
X382619Y243D01*
X383958Y6D01*
X382108Y991D01*
D02*G37*
G36*
X382108Y991D02*
X382108Y991D01*
X383958Y6D01*
X385179Y1266D01*
X382108Y991D01*
D02*G37*
G36*
X381438Y12920D02*
X381438Y12920D01*
X382108Y991D01*
X385179Y1266D01*
X381438Y12920D01*
D02*G37*
G36*
X381438Y12920D02*
X381438Y12920D01*
X385179Y1266D01*
X385730Y12880D01*
X381438Y12920D01*
D02*G37*
G36*
X401438Y243D02*
X401438Y243D01*
X402068Y6D01*
X402777Y6D01*
X401438Y243D01*
D02*G37*
G36*
X402777Y6D02*
X402777Y6D01*
X403525Y439D01*
X403997Y1266D01*
X402777Y6D01*
D02*G37*
G36*
X400927Y991D02*
X400927Y991D01*
X401438Y243D01*
X402777Y6D01*
X400927Y991D01*
D02*G37*
G36*
X400927Y991D02*
X400927Y991D01*
X402777Y6D01*
X403997Y1266D01*
X400927Y991D01*
D02*G37*
G36*
X400257Y12920D02*
X400257Y12920D01*
X400927Y991D01*
X403997Y1266D01*
X400257Y12920D01*
D02*G37*
G36*
X400257Y12920D02*
X400257Y12920D01*
X403997Y1266D01*
X404549Y12880D01*
X400257Y12920D01*
D02*G37*
G36*
X420257Y243D02*
X420257Y243D01*
X420887Y6D01*
X421596Y6D01*
X420257Y243D01*
D02*G37*
G36*
X421596Y6D02*
X421596Y6D01*
X422344Y439D01*
X422816Y1266D01*
X421596Y6D01*
D02*G37*
G36*
X419745Y991D02*
X419745Y991D01*
X420257Y243D01*
X421596Y6D01*
X419745Y991D01*
D02*G37*
G36*
X419745Y991D02*
X419745Y991D01*
X421596Y6D01*
X422816Y1266D01*
X419745Y991D01*
D02*G37*
G36*
X419076Y12920D02*
X419076Y12920D01*
X419745Y991D01*
X422816Y1266D01*
X419076Y12920D01*
D02*G37*
G36*
X419076Y12920D02*
X419076Y12920D01*
X422816Y1266D01*
X423368Y12880D01*
X419076Y12920D01*
D02*G37*
G36*
X439076Y243D02*
X439076Y243D01*
X439706Y6D01*
X440415Y6D01*
X439076Y243D01*
D02*G37*
G36*
X440415Y6D02*
X440415Y6D01*
X441163Y439D01*
X441635Y1266D01*
X440415Y6D01*
D02*G37*
G36*
X438564Y991D02*
X438564Y991D01*
X439076Y243D01*
X440415Y6D01*
X438564Y991D01*
D02*G37*
G36*
X438564Y991D02*
X438564Y991D01*
X440415Y6D01*
X441635Y1266D01*
X438564Y991D01*
D02*G37*
G36*
X437895Y12920D02*
X437895Y12920D01*
X438564Y991D01*
X441635Y1266D01*
X437895Y12920D01*
D02*G37*
G36*
X437895Y12920D02*
X437895Y12920D01*
X441635Y1266D01*
X442186Y12880D01*
X437895Y12920D01*
D02*G37*
G36*
X457895Y243D02*
X457895Y243D01*
X458525Y6D01*
X459234Y6D01*
X457895Y243D01*
D02*G37*
G36*
X459234Y6D02*
X459234Y6D01*
X459982Y439D01*
X460454Y1266D01*
X459234Y6D01*
D02*G37*
G36*
X457383Y991D02*
X457383Y991D01*
X457895Y243D01*
X459234Y6D01*
X457383Y991D01*
D02*G37*
G36*
X457383Y991D02*
X457383Y991D01*
X459234Y6D01*
X460454Y1266D01*
X457383Y991D01*
D02*G37*
G36*
X456714Y12920D02*
X456714Y12920D01*
X457383Y991D01*
X460454Y1266D01*
X456714Y12920D01*
D02*G37*
G36*
X456714Y12920D02*
X456714Y12920D01*
X460454Y1266D01*
X461005Y12880D01*
X456714Y12920D01*
D02*G37*
G36*
X476714Y243D02*
X476714Y243D01*
X477344Y6D01*
X478053Y6D01*
X476714Y243D01*
D02*G37*
G36*
X478053Y6D02*
X478053Y6D01*
X478801Y439D01*
X479273Y1266D01*
X478053Y6D01*
D02*G37*
G36*
X476202Y991D02*
X476202Y991D01*
X476714Y243D01*
X478053Y6D01*
X476202Y991D01*
D02*G37*
G36*
X476202Y991D02*
X476202Y991D01*
X478053Y6D01*
X479273Y1266D01*
X476202Y991D01*
D02*G37*
G36*
X475533Y12920D02*
X475533Y12920D01*
X476202Y991D01*
X479273Y1266D01*
X475533Y12920D01*
D02*G37*
G36*
X475533Y12920D02*
X475533Y12920D01*
X479273Y1266D01*
X479824Y12880D01*
X475533Y12920D01*
D02*G37*
G36*
X495533Y243D02*
X495533Y243D01*
X496163Y6D01*
X496871Y6D01*
X495533Y243D01*
D02*G37*
G36*
X496871Y6D02*
X496871Y6D01*
X497619Y439D01*
X498092Y1266D01*
X496871Y6D01*
D02*G37*
G36*
X495021Y991D02*
X495021Y991D01*
X495533Y243D01*
X496871Y6D01*
X495021Y991D01*
D02*G37*
G36*
X495021Y991D02*
X495021Y991D01*
X496871Y6D01*
X498092Y1266D01*
X495021Y991D01*
D02*G37*
G36*
X494352Y12920D02*
X494352Y12920D01*
X495021Y991D01*
X498092Y1266D01*
X494352Y12920D01*
D02*G37*
G36*
X494352Y12920D02*
X494352Y12920D01*
X498092Y1266D01*
X498643Y12880D01*
X494352Y12920D01*
D02*G37*
G36*
X514352Y243D02*
X514352Y243D01*
X514982Y6D01*
X515690Y6D01*
X514352Y243D01*
D02*G37*
G36*
X515690Y6D02*
X515690Y6D01*
X516438Y439D01*
X516911Y1266D01*
X515690Y6D01*
D02*G37*
G36*
X513840Y991D02*
X513840Y991D01*
X514352Y243D01*
X515690Y6D01*
X513840Y991D01*
D02*G37*
G36*
X513840Y991D02*
X513840Y991D01*
X515690Y6D01*
X516911Y1266D01*
X513840Y991D01*
D02*G37*
G36*
X513171Y12920D02*
X513171Y12920D01*
X513840Y991D01*
X516911Y1266D01*
X513171Y12920D01*
D02*G37*
G36*
X513171Y12920D02*
X513171Y12920D01*
X516911Y1266D01*
X517462Y12880D01*
X513171Y12920D01*
D02*G37*
G36*
X533171Y243D02*
X533171Y243D01*
X533801Y6D01*
X534509Y6D01*
X533171Y243D01*
D02*G37*
G36*
X534509Y6D02*
X534509Y6D01*
X535257Y439D01*
X535730Y1266D01*
X534509Y6D01*
D02*G37*
G36*
X532659Y991D02*
X532659Y991D01*
X533171Y243D01*
X534509Y6D01*
X532659Y991D01*
D02*G37*
G36*
X532659Y991D02*
X532659Y991D01*
X534509Y6D01*
X535730Y1266D01*
X532659Y991D01*
D02*G37*
G36*
X531990Y12920D02*
X531990Y12920D01*
X532659Y991D01*
X535730Y1266D01*
X531990Y12920D01*
D02*G37*
G36*
X531990Y12920D02*
X531990Y12920D01*
X535730Y1266D01*
X536281Y12880D01*
X531990Y12920D01*
D02*G37*
G36*
X551990Y243D02*
X551990Y243D01*
X552619Y6D01*
X553328Y6D01*
X551990Y243D01*
D02*G37*
G36*
X553328Y6D02*
X553328Y6D01*
X554076Y439D01*
X554549Y1266D01*
X553328Y6D01*
D02*G37*
G36*
X551478Y991D02*
X551478Y991D01*
X551990Y243D01*
X553328Y6D01*
X551478Y991D01*
D02*G37*
G36*
X551478Y991D02*
X551478Y991D01*
X553328Y6D01*
X554549Y1266D01*
X551478Y991D01*
D02*G37*
G36*
X550808Y12920D02*
X550808Y12920D01*
X551478Y991D01*
X554549Y1266D01*
X550808Y12920D01*
D02*G37*
G36*
X550808Y12920D02*
X550808Y12920D01*
X554549Y1266D01*
X555100Y12880D01*
X550808Y12920D01*
D02*G37*
G36*
X570808Y243D02*
X570808Y243D01*
X571438Y6D01*
X572147Y6D01*
X570808Y243D01*
D02*G37*
G36*
X572147Y6D02*
X572147Y6D01*
X572895Y439D01*
X573368Y1266D01*
X572147Y6D01*
D02*G37*
G36*
X570297Y991D02*
X570297Y991D01*
X570808Y243D01*
X572147Y6D01*
X570297Y991D01*
D02*G37*
G36*
X570297Y991D02*
X570297Y991D01*
X572147Y6D01*
X573368Y1266D01*
X570297Y991D01*
D02*G37*
G36*
X569627Y12920D02*
X569627Y12920D01*
X570297Y991D01*
X573368Y1266D01*
X569627Y12920D01*
D02*G37*
G36*
X569627Y12920D02*
X569627Y12920D01*
X573368Y1266D01*
X573919Y12880D01*
X569627Y12920D01*
D02*G37*
G36*
X589627Y243D02*
X589627Y243D01*
X590257Y6D01*
X590966Y6D01*
X589627Y243D01*
D02*G37*
G36*
X590966Y6D02*
X590966Y6D01*
X591714Y439D01*
X592186Y1266D01*
X590966Y6D01*
D02*G37*
G36*
X589116Y991D02*
X589116Y991D01*
X589627Y243D01*
X590966Y6D01*
X589116Y991D01*
D02*G37*
G36*
X589116Y991D02*
X589116Y991D01*
X590966Y6D01*
X592186Y1266D01*
X589116Y991D01*
D02*G37*
G36*
X588446Y12920D02*
X588446Y12920D01*
X589116Y991D01*
X592186Y1266D01*
X588446Y12920D01*
D02*G37*
G36*
X588446Y12920D02*
X588446Y12920D01*
X592186Y1266D01*
X592738Y12880D01*
X588446Y12920D01*
D02*G37*
G36*
X608446Y243D02*
X608446Y243D01*
X609076Y6D01*
X609785Y6D01*
X608446Y243D01*
D02*G37*
G36*
X609785Y6D02*
X609785Y6D01*
X610533Y439D01*
X611005Y1266D01*
X609785Y6D01*
D02*G37*
G36*
X607934Y991D02*
X607934Y991D01*
X608446Y243D01*
X609785Y6D01*
X607934Y991D01*
D02*G37*
G36*
X607934Y991D02*
X607934Y991D01*
X609785Y6D01*
X611005Y1266D01*
X607934Y991D01*
D02*G37*
G36*
X607265Y12920D02*
X607265Y12920D01*
X607934Y991D01*
X611005Y1266D01*
X607265Y12920D01*
D02*G37*
G36*
X607265Y12920D02*
X607265Y12920D01*
X611005Y1266D01*
X611556Y12880D01*
X607265Y12920D01*
D02*G37*
G36*
X627265Y243D02*
X627265Y243D01*
X627895Y6D01*
X628604Y6D01*
X627265Y243D01*
D02*G37*
G36*
X628604Y6D02*
X628604Y6D01*
X629352Y439D01*
X629824Y1266D01*
X628604Y6D01*
D02*G37*
G36*
X626753Y991D02*
X626753Y991D01*
X627265Y243D01*
X628604Y6D01*
X626753Y991D01*
D02*G37*
G36*
X626753Y991D02*
X626753Y991D01*
X628604Y6D01*
X629824Y1266D01*
X626753Y991D01*
D02*G37*
G36*
X626084Y12920D02*
X626084Y12920D01*
X626753Y991D01*
X629824Y1266D01*
X626084Y12920D01*
D02*G37*
G36*
X626084Y12920D02*
X626084Y12920D01*
X629824Y1266D01*
X630375Y12880D01*
X626084Y12920D01*
D02*G37*
G36*
X646084Y243D02*
X646084Y243D01*
X646714Y6D01*
X647423Y6D01*
X646084Y243D01*
D02*G37*
G36*
X647423Y6D02*
X647423Y6D01*
X648171Y439D01*
X648643Y1266D01*
X647423Y6D01*
D02*G37*
G36*
X645572Y991D02*
X645572Y991D01*
X646084Y243D01*
X647423Y6D01*
X645572Y991D01*
D02*G37*
G36*
X645572Y991D02*
X645572Y991D01*
X647423Y6D01*
X648643Y1266D01*
X645572Y991D01*
D02*G37*
G36*
X644903Y12920D02*
X644903Y12920D01*
X645572Y991D01*
X648643Y1266D01*
X644903Y12920D01*
D02*G37*
G36*
X644903Y12920D02*
X644903Y12920D01*
X648643Y1266D01*
X649194Y12880D01*
X644903Y12920D01*
D02*G37*
G36*
X664903Y243D02*
X664903Y243D01*
X665533Y6D01*
X666242Y6D01*
X664903Y243D01*
D02*G37*
G36*
X666242Y6D02*
X666242Y6D01*
X666990Y439D01*
X667462Y1266D01*
X666242Y6D01*
D02*G37*
G36*
X664391Y991D02*
X664391Y991D01*
X664903Y243D01*
X666242Y6D01*
X664391Y991D01*
D02*G37*
G36*
X664391Y991D02*
X664391Y991D01*
X666242Y6D01*
X667462Y1266D01*
X664391Y991D01*
D02*G37*
G36*
X663722Y12920D02*
X663722Y12920D01*
X664391Y991D01*
X667462Y1266D01*
X663722Y12920D01*
D02*G37*
G36*
X663722Y12920D02*
X663722Y12920D01*
X667462Y1266D01*
X668013Y12880D01*
X663722Y12920D01*
D02*G37*
G36*
X683722Y243D02*
X683722Y243D01*
X684352Y6D01*
X685060Y6D01*
X683722Y243D01*
D02*G37*
G36*
X685060Y6D02*
X685060Y6D01*
X685808Y439D01*
X686281Y1266D01*
X685060Y6D01*
D02*G37*
G36*
X683210Y991D02*
X683210Y991D01*
X683722Y243D01*
X685060Y6D01*
X683210Y991D01*
D02*G37*
G36*
X683210Y991D02*
X683210Y991D01*
X685060Y6D01*
X686281Y1266D01*
X683210Y991D01*
D02*G37*
G36*
X682541Y12920D02*
X682541Y12920D01*
X683210Y991D01*
X686281Y1266D01*
X682541Y12920D01*
D02*G37*
G36*
X682541Y12920D02*
X682541Y12920D01*
X686281Y1266D01*
X686832Y12880D01*
X682541Y12920D01*
D02*G37*
G36*
X702541Y243D02*
X702541Y243D01*
X703171Y6D01*
X703879Y6D01*
X702541Y243D01*
D02*G37*
G36*
X703879Y6D02*
X703879Y6D01*
X704627Y439D01*
X705100Y1266D01*
X703879Y6D01*
D02*G37*
G36*
X702029Y991D02*
X702029Y991D01*
X702541Y243D01*
X703879Y6D01*
X702029Y991D01*
D02*G37*
G36*
X702029Y991D02*
X702029Y991D01*
X703879Y6D01*
X705100Y1266D01*
X702029Y991D01*
D02*G37*
G36*
X701360Y12920D02*
X701360Y12920D01*
X702029Y991D01*
X705100Y1266D01*
X701360Y12920D01*
D02*G37*
G36*
X701360Y12920D02*
X701360Y12920D01*
X705100Y1266D01*
X705651Y12880D01*
X701360Y12920D01*
D02*G37*
G36*
X721360Y243D02*
X721360Y243D01*
X721990Y6D01*
X722698Y6D01*
X721360Y243D01*
D02*G37*
G36*
X722698Y6D02*
X722698Y6D01*
X723446Y439D01*
X723919Y1266D01*
X722698Y6D01*
D02*G37*
G36*
X720848Y991D02*
X720848Y991D01*
X721360Y243D01*
X722698Y6D01*
X720848Y991D01*
D02*G37*
G36*
X720848Y991D02*
X720848Y991D01*
X722698Y6D01*
X723919Y1266D01*
X720848Y991D01*
D02*G37*
G36*
X720179Y12920D02*
X720179Y12920D01*
X720848Y991D01*
X723919Y1266D01*
X720179Y12920D01*
D02*G37*
G36*
X720179Y12920D02*
X720179Y12920D01*
X723919Y1266D01*
X724470Y12880D01*
X720179Y12920D01*
D02*G37*
G36*
X740179Y243D02*
X740179Y243D01*
X740808Y6D01*
X741517Y6D01*
X740179Y243D01*
D02*G37*
G36*
X741517Y6D02*
X741517Y6D01*
X742265Y439D01*
X742738Y1266D01*
X741517Y6D01*
D02*G37*
G36*
X739667Y991D02*
X739667Y991D01*
X740179Y243D01*
X741517Y6D01*
X739667Y991D01*
D02*G37*
G36*
X739667Y991D02*
X739667Y991D01*
X741517Y6D01*
X742738Y1266D01*
X739667Y991D01*
D02*G37*
G36*
X738997Y12920D02*
X738997Y12920D01*
X739667Y991D01*
X742738Y1266D01*
X738997Y12920D01*
D02*G37*
G36*
X738997Y12920D02*
X738997Y12920D01*
X742738Y1266D01*
X743289Y12880D01*
X738997Y12920D01*
D02*G37*
G36*
X758997Y243D02*
X758997Y243D01*
X759627Y6D01*
X760336Y6D01*
X758997Y243D01*
D02*G37*
G36*
X760336Y6D02*
X760336Y6D01*
X761084Y439D01*
X761556Y1266D01*
X760336Y6D01*
D02*G37*
G36*
X758486Y991D02*
X758486Y991D01*
X758997Y243D01*
X760336Y6D01*
X758486Y991D01*
D02*G37*
G36*
X758486Y991D02*
X758486Y991D01*
X760336Y6D01*
X761556Y1266D01*
X758486Y991D01*
D02*G37*
G36*
X757698Y14534D02*
X757698Y14534D01*
X758486Y991D01*
X761556Y1266D01*
X757698Y14534D01*
D02*G37*
G36*
X757698Y14534D02*
X757698Y14534D01*
X761556Y1266D01*
X762226Y14928D01*
X757698Y14534D01*
D02*G37*
G36*
X777816Y243D02*
X777816Y243D01*
X778446Y6D01*
X779155Y6D01*
X777816Y243D01*
D02*G37*
G36*
X779155Y6D02*
X779155Y6D01*
X779903Y439D01*
X780375Y1266D01*
X779155Y6D01*
D02*G37*
G36*
X777305Y991D02*
X777305Y991D01*
X777816Y243D01*
X779155Y6D01*
X777305Y991D01*
D02*G37*
G36*
X777305Y991D02*
X777305Y991D01*
X779155Y6D01*
X780375Y1266D01*
X777305Y991D01*
D02*G37*
G36*
X776635Y12920D02*
X776635Y12920D01*
X777305Y991D01*
X780375Y1266D01*
X776635Y12920D01*
D02*G37*
G36*
X776635Y12920D02*
X776635Y12920D01*
X780375Y1266D01*
X780927Y12880D01*
X776635Y12920D01*
D02*G37*
G36*
X796635Y243D02*
X796635Y243D01*
X797265Y6D01*
X797974Y6D01*
X796635Y243D01*
D02*G37*
G36*
X797974Y6D02*
X797974Y6D01*
X798722Y439D01*
X799194Y1266D01*
X797974Y6D01*
D02*G37*
G36*
X796123Y991D02*
X796123Y991D01*
X796635Y243D01*
X797974Y6D01*
X796123Y991D01*
D02*G37*
G36*
X796123Y991D02*
X796123Y991D01*
X797974Y6D01*
X799194Y1266D01*
X796123Y991D01*
D02*G37*
G36*
X795454Y12920D02*
X795454Y12920D01*
X796123Y991D01*
X799194Y1266D01*
X795454Y12920D01*
D02*G37*
G36*
X795454Y12920D02*
X795454Y12920D01*
X799194Y1266D01*
X799824Y12959D01*
X795454Y12920D01*
D02*G37*
G36*
X757974Y15006D02*
X757974Y15006D01*
X758682Y1542D01*
X758761Y3786D01*
X757974Y15006D01*
D02*G37*
G36*
X758682Y1542D02*
X758682Y1542D01*
X761202Y1542D01*
X761911Y15164D01*
X758682Y1542D01*
D02*G37*
G36*
X758682Y1542D02*
X758682Y1542D01*
X761911Y15164D01*
X757974Y15006D01*
X758682Y1542D01*
D02*G37*
G36*
X776793Y15006D02*
X776793Y15006D01*
X777501Y1542D01*
X777580Y3786D01*
X776793Y15006D01*
D02*G37*
G36*
X777501Y1542D02*
X777501Y1542D01*
X780021Y1542D01*
X780730Y15164D01*
X777501Y1542D01*
D02*G37*
G36*
X777501Y1542D02*
X777501Y1542D01*
X780730Y15164D01*
X776793Y15006D01*
X777501Y1542D01*
D02*G37*
G36*
X795612Y15006D02*
X795612Y15006D01*
X796320Y1542D01*
X796399Y3786D01*
X795612Y15006D01*
D02*G37*
G36*
X796320Y1542D02*
X796320Y1542D01*
X798840Y1542D01*
X799549Y15164D01*
X796320Y1542D01*
D02*G37*
G36*
X796320Y1542D02*
X796320Y1542D01*
X799549Y15164D01*
X795612Y15006D01*
X796320Y1542D01*
D02*G37*
G36*
X24037Y15006D02*
X24037Y15006D01*
X24745Y1542D01*
X24824Y3786D01*
X24037Y15006D01*
D02*G37*
G36*
X24745Y1542D02*
X24745Y1542D01*
X27265Y1542D01*
X27974Y15164D01*
X24745Y1542D01*
D02*G37*
G36*
X24745Y1542D02*
X24745Y1542D01*
X27974Y15164D01*
X24037Y15006D01*
X24745Y1542D01*
D02*G37*
G36*
X42856Y15006D02*
X42856Y15006D01*
X43564Y1542D01*
X43643Y3786D01*
X42856Y15006D01*
D02*G37*
G36*
X43564Y1542D02*
X43564Y1542D01*
X46084Y1542D01*
X46793Y15164D01*
X43564Y1542D01*
D02*G37*
G36*
X43564Y1542D02*
X43564Y1542D01*
X46793Y15164D01*
X42856Y15006D01*
X43564Y1542D01*
D02*G37*
G36*
X61675Y15006D02*
X61675Y15006D01*
X62383Y1542D01*
X62462Y3786D01*
X61675Y15006D01*
D02*G37*
G36*
X62383Y1542D02*
X62383Y1542D01*
X64903Y1542D01*
X65612Y15164D01*
X62383Y1542D01*
D02*G37*
G36*
X62383Y1542D02*
X62383Y1542D01*
X65612Y15164D01*
X61675Y15006D01*
X62383Y1542D01*
D02*G37*
G36*
X814509Y15006D02*
X814509Y15006D01*
X815218Y1542D01*
X815297Y3786D01*
X814509Y15006D01*
D02*G37*
G36*
X815218Y1542D02*
X815218Y1542D01*
X817738Y1542D01*
X818446Y15164D01*
X815218Y1542D01*
D02*G37*
G36*
X815218Y1542D02*
X815218Y1542D01*
X818446Y15164D01*
X814509Y15006D01*
X815218Y1542D01*
D02*G37*
G36*
X815533Y243D02*
X815533Y243D01*
X816163Y6D01*
X816871Y6D01*
X815533Y243D01*
D02*G37*
G36*
X816871Y6D02*
X816871Y6D01*
X817619Y439D01*
X818092Y1266D01*
X816871Y6D01*
D02*G37*
G36*
X815021Y991D02*
X815021Y991D01*
X815533Y243D01*
X816871Y6D01*
X815021Y991D01*
D02*G37*
G36*
X815021Y991D02*
X815021Y991D01*
X816871Y6D01*
X818092Y1266D01*
X815021Y991D01*
D02*G37*
G36*
X814194Y13550D02*
X814194Y13550D01*
X815021Y991D01*
X818092Y1266D01*
X814194Y13550D01*
D02*G37*
G36*
X814194Y13550D02*
X814194Y13550D01*
X818092Y1266D01*
X818525Y14337D01*
X814194Y13550D01*
D02*G37*
G36*
X5218Y15006D02*
X5218Y15006D01*
X5927Y1542D01*
X6005Y3786D01*
X5218Y15006D01*
D02*G37*
G36*
X5927Y1542D02*
X5927Y1542D01*
X8446Y1542D01*
X9155Y15164D01*
X5927Y1542D01*
D02*G37*
G36*
X5927Y1542D02*
X5927Y1542D01*
X9155Y15164D01*
X5218Y15006D01*
X5927Y1542D01*
D02*G37*
G36*
X6242Y243D02*
X6242Y243D01*
X6871Y6D01*
X7580Y6D01*
X6242Y243D01*
D02*G37*
G36*
X7580Y6D02*
X7580Y6D01*
X8328Y439D01*
X8801Y1266D01*
X7580Y6D01*
D02*G37*
G36*
X5730Y991D02*
X5730Y991D01*
X6242Y243D01*
X7580Y6D01*
X5730Y991D01*
D02*G37*
G36*
X5730Y991D02*
X5730Y991D01*
X7580Y6D01*
X8801Y1266D01*
X5730Y991D01*
D02*G37*
G36*
X5021Y14731D02*
X5021Y14731D01*
X5730Y991D01*
X8801Y1266D01*
X5021Y14731D01*
D02*G37*
G36*
X5021Y14731D02*
X5021Y14731D01*
X8801Y1266D01*
X9549Y14731D01*
X5021Y14731D01*
D02*G37*
M02*
